<?xml version="1.0" encoding="UTF-8"?>
<svg version="1.1" xmlns="http://www.w3.org/2000/svg" width="1649" height="1649">
<path d="M0 0 C0.67643838 -0.001724 1.35287676 -0.00344799 2.04981327 -0.00522423 C4.34963838 -0.00962903 6.64939237 -0.00658162 8.94921875 -0.00341797 C10.61152673 -0.00452234 12.27383452 -0.00595557 13.93614197 -0.00769043 C18.53240628 -0.01065508 23.12863589 -0.00617971 27.72489548 0.00041962 C30.6359431 0.00439347 33.54698886 0.00691204 36.45803833 0.00909424 C71.16957463 0.03873592 105.88070142 0.21525975 140.59130633 0.46312749 C145.20302505 0.49571791 149.8147574 0.52402556 154.42651367 0.55072021 C246.75304222 1.09807011 350.32284991 4.78681156 430.63671875 61.12939453 C431.33023437 61.61230957 432.02375 62.09522461 432.73828125 62.59277344 C442.80526301 69.62193102 452.46631347 76.96388274 461.63671875 85.12939453 C462.60609375 85.98791016 463.57546875 86.84642578 464.57421875 87.73095703 C476.77647419 98.73245861 488.36984546 110.0661891 498.21826172 123.24902344 C499.76186909 125.29529951 501.33871244 127.31280229 502.921875 129.32861328 C509.42499297 137.64038466 515.39257193 145.95476492 520.63671875 155.12939453 C521.0136084 155.77924316 521.39049805 156.4290918 521.77880859 157.09863281 C546.35062475 199.56782814 559.43153845 245.06231626 564.88671875 293.69189453 C564.96998413 294.43095032 565.05324951 295.1700061 565.13903809 295.93145752 C574.48029724 380.136639 558.24615323 469.8458698 494.18017578 560.18359375 C492.8941189 561.80489609 491.62117135 563.43658631 490.3515625 565.07080078 C482.50310602 575.11102334 473.87916986 584.11998202 464.40234375 592.60986328 C462.06968042 594.73495911 459.87554276 596.91041201 457.69921875 599.19189453 C452.52961659 604.43688673 446.60957374 608.84235294 440.63671875 613.12939453 C440.02626709 613.57114014 439.41581543 614.01288574 438.78686523 614.46801758 C432.12509832 619.10349376 424.98221965 622.78561574 417.79919434 626.53143311 C413.99365428 628.51625598 410.19682719 630.51765158 406.3984375 632.51611328 C405.64345978 632.91272156 404.88848206 633.30932983 404.11062622 633.71795654 C397.67692413 637.09993037 391.27407184 640.53554901 384.88671875 644.00439453 C383.94666992 644.51317139 383.00662109 645.02194824 382.03808594 645.54614258 C377.13339294 648.20648154 372.24966321 650.90040382 367.3828125 653.62939453 C365.85769043 654.47848389 365.85769043 654.47848389 364.30175781 655.34472656 C362.3626548 656.42557457 360.4281328 657.51469581 358.49902344 658.61328125 C357.64083008 659.09039551 356.78263672 659.56750977 355.8984375 660.05908203 C355.14522217 660.48431152 354.39200684 660.90954102 353.6159668 661.34765625 C351.63671875 662.12939453 351.63671875 662.12939453 348.63671875 661.12939453 C348.63037084 659.56686951 348.63037084 659.56686951 348.62389469 657.97277832 C348.51917246 632.23593865 348.41027835 606.49911897 348.29737949 580.76231384 C348.24286499 568.31453135 348.18957655 555.86674613 348.1394043 543.41894531 C348.01222959 512.00685413 347.86373563 480.5949818 347.65680408 449.18330383 C347.64362796 447.17991738 347.63059892 445.17652995 347.61773205 443.17314148 C347.54567343 431.96678995 347.45843662 420.76082042 347.33579826 409.55490112 C347.30422484 406.64421154 347.27828489 403.73357611 347.25830269 400.82278442 C347.15446176 386.30688219 346.63387732 371.91617555 345.24047852 357.46923828 C345.11950522 356.21320297 344.99853193 354.95716766 344.87389278 353.66307068 C341.926797 325.35139464 335.09505589 298.10265311 313.640625 278.28564453 C287.24917914 256.94546465 248.12815025 256.92638871 216.05615234 259.40625 C172.12846967 264.14809907 128.87904062 285.69053934 92.63671875 310.12939453 C91.64842289 310.62011602 91.64842289 310.62011602 90.64016145 311.12075108 C88.12407703 312.56975112 86.47122144 313.86359545 84.63671875 316.12939453 C83.42394779 320.93765421 83.57025068 325.73660481 83.64344788 330.66304016 C83.6365427 332.16895264 83.62612424 333.67485241 83.61249822 335.18071908 C83.58522263 339.31594361 83.60771973 343.44963124 83.63830984 347.58477747 C83.6625793 352.04492127 83.6406889 356.50486508 83.62435913 360.9650116 C83.60234694 368.69167903 83.60946509 376.41787923 83.63624763 384.14452553 C83.67484464 395.31696471 83.66841211 406.48902293 83.65078967 417.66149833 C83.62332695 435.78929214 83.6307939 453.91689448 83.66088867 472.04467773 C83.69003091 489.65179543 83.7052446 507.25882389 83.69995117 524.8659668 C83.69947147 526.49365377 83.69947147 526.49365377 83.69898207 528.1542233 C83.6955521 538.93805067 83.69008216 549.72187698 83.68465455 560.50570348 C83.68206609 565.73119382 83.67968876 570.95668423 83.67735291 576.18217468 C83.67686649 577.20232993 83.67638008 578.22248518 83.67587893 579.27355423 C83.66943223 593.43173423 83.67665023 607.58984705 83.6939701 621.74801691 C83.70036684 627.39826851 83.70422439 633.04852242 83.70794476 638.69877634 C83.71172033 643.95853837 83.7197894 649.21827062 83.73114056 654.47802146 C83.73699483 657.65686195 83.73879532 660.83569468 83.73938721 664.0145401 C83.74052155 665.47870511 83.74340217 666.94286993 83.74812651 668.40702776 C83.75431006 670.38413741 83.75388194 672.36126454 83.75303745 674.33838367 C83.75471599 675.44049712 83.75639453 676.54261057 83.75812393 677.67812139 C83.63671875 680.12939453 83.63671875 680.12939453 82.63671875 681.12939453 C79.87270467 681.22989667 77.13364649 681.26555528 74.36914062 681.25878906 C73.50253311 681.26054138 72.6359256 681.2622937 71.74305725 681.26409912 C68.86384102 681.26851878 65.98468566 681.26557925 63.10546875 681.26220703 C61.11389148 681.26288004 59.12231429 681.26385003 57.1307373 681.2651062 C52.9509198 681.26658333 48.77112362 681.26442814 44.59130859 681.25976562 C39.22069349 681.25406833 33.85012835 681.25734726 28.47951508 681.26333809 C24.36529155 681.2669433 20.25107996 681.2658053 16.13685608 681.2632103 C14.15601089 681.26254092 12.17516463 681.26336983 10.19432068 681.26568985 C7.43094999 681.26821572 4.66766141 681.26437671 1.90429688 681.25878906 C1.07724747 681.26081329 0.25019806 681.26283752 -0.60191345 681.2649231 C-6.24901881 681.24365697 -6.24901881 681.24365697 -7.36328125 680.12939453 C-7.46086253 678.63973043 -7.48851097 677.14543557 -7.48863041 675.65257883 C-7.49113393 674.67729748 -7.49363745 673.70201614 -7.49621683 672.69718081 C-7.49387567 671.61074311 -7.4915345 670.52430542 -7.48912239 669.40494537 C-7.49057583 668.25768539 -7.49202927 667.11042541 -7.49352676 665.92839998 C-7.49656834 662.71545644 -7.49507474 659.5025502 -7.4917488 656.28960805 C-7.48922791 652.80498151 -7.4924657 649.32035977 -7.49499214 645.83573389 C-7.49861676 639.71906732 -7.49848636 633.60240956 -7.49594498 627.48574257 C-7.49217617 618.39032934 -7.49408909 609.29492361 -7.49715328 600.19951044 C-7.50243058 583.95896512 -7.50195805 567.71842372 -7.49907437 551.47787802 C-7.49656314 537.26587598 -7.49590009 523.05387538 -7.49709702 508.84187317 C-7.4971734 507.90075757 -7.49724979 506.95964197 -7.49732849 505.99000772 C-7.4976398 502.17013305 -7.4979582 498.35025838 -7.49828825 494.53038372 C-7.50135026 458.66501833 -7.49856902 422.79965545 -7.49319135 386.93429045 C-7.48844542 355.03952562 -7.48887003 323.14476479 -7.49365234 291.25 C-7.4990019 255.45206246 -7.50113314 219.65412714 -7.49804008 183.85618925 C-7.49771934 180.04309813 -7.4974065 176.23000701 -7.49709702 172.41691589 C-7.49701794 171.47797064 -7.49693886 170.53902539 -7.49685739 169.57162725 C-7.49571782 155.36528121 -7.49705409 141.15893676 -7.49957657 126.95259094 C-7.50242911 110.80642374 -7.50173538 94.6602611 -7.49629582 78.51409447 C-7.49334887 69.46718787 -7.49318315 60.42029111 -7.496942 51.37338475 C-7.4991726 45.34172927 -7.49781032 39.31008174 -7.49343723 33.27842745 C-7.49104246 29.83425324 -7.49027792 26.39009869 -7.49384321 22.94592506 C-7.49684355 19.24854517 -7.49380652 15.55122059 -7.48912239 11.85384369 C-7.49146356 10.767406 -7.49380472 9.6809683 -7.49621683 8.56160825 C-7.49371332 7.58632691 -7.4912098 6.61104556 -7.48863041 5.60621023 C-7.48856265 4.7593032 -7.4884949 3.91239617 -7.48842508 3.03982529 C-7.20642386 -1.26517154 -3.52432936 0.00230987 0 0 Z M83.63671875 80.12939453 C83.63671875 134.24939453 83.63671875 188.36939453 83.63671875 244.12939453 C87.96924108 242.3963856 91.10416843 240.49222867 94.76171875 237.75439453 C153.51471923 194.96346458 225.8118642 170.4465339 298.72607422 181.60205078 C327.1963253 186.22092883 353.81473845 195.04157767 376.63671875 213.12939453 C377.4572876 213.76482178 377.4572876 213.76482178 378.29443359 214.41308594 C393.12327515 225.96593964 403.45110201 239.82890703 412.63671875 256.12939453 C413.28382813 257.25603516 413.9309375 258.38267578 414.59765625 259.54345703 C431.54261987 291.05648891 435.68063758 328.48433169 435.84204102 363.68383789 C435.85165616 365.06534595 435.86166813 366.44685129 435.87203979 367.82835388 C435.89870208 371.52567715 435.91991693 375.22301269 435.94004178 378.92037654 C435.96214462 382.8040816 435.98941261 386.6877506 436.01609802 390.57142639 C436.06570068 397.90201219 436.11075759 405.23261837 436.15412039 412.56324345 C436.20377279 420.918958 436.25858561 429.27463631 436.31379998 437.63031566 C436.42712117 454.79664166 436.53406567 471.96300149 436.63671875 489.12939453 C437.29671875 489.12939453 437.95671875 489.12939453 438.63671875 489.12939453 C478.35938323 415.18664718 483.01323281 320.87330601 459.4140625 240.62158203 C450.2129888 211.20145347 434.96738389 183.40335585 413.63671875 161.12939453 C412.31198448 159.63442115 410.98726468 158.13942327 409.66796875 156.63964844 C363.69810781 104.97366737 289.79200323 86.43498076 223.63671875 81.12939453 C222.58442078 81.03970901 221.5321228 80.9500235 220.44793701 80.85762024 C206.6294122 79.8275543 192.79807341 80.00372318 178.94921875 80.03173828 C176.50325544 80.03321163 174.05729181 80.03422992 171.61132812 80.03479004 C162.61978681 80.03999739 153.62825227 80.05395856 144.63671875 80.06689453 C124.50671875 80.08751953 104.37671875 80.10814453 83.63671875 80.12939453 Z " fill="#8791AF" transform="translate(574.36328125,483.87060546875)"/>
<path d="M0 0 C14.46834275 -0.04025196 28.93652996 -0.08041526 43.40488434 -0.10050774 C51.18270911 -0.11147906 58.96048923 -0.12534095 66.73828125 -0.15087891 C127.3051904 -0.34565317 127.3051904 -0.34565317 155 2 C156.35060618 2.11107862 157.70123371 2.22189781 159.05187988 2.33248901 C224.66115556 7.75287787 293.20828283 21.29717951 348 60 C348.69351562 60.48291504 349.38703125 60.96583008 350.1015625 61.46337891 C360.16854426 68.49253649 369.82959472 75.83448821 379 84 C379.969375 84.85851562 380.93875 85.71703125 381.9375 86.6015625 C394.13975544 97.60306408 405.73312671 108.93679457 415.58154297 122.11962891 C417.12515034 124.16590498 418.70199369 126.18340776 420.28515625 128.19921875 C426.78827422 136.51099013 432.75585318 144.82537039 438 154 C438.56533447 154.97477295 438.56533447 154.97477295 439.14208984 155.96923828 C463.713906 198.43843361 476.7948197 243.93292173 482.25 292.5625 C482.33326538 293.30155579 482.41653076 294.04061157 482.50231934 294.80206299 C491.84357849 379.00724447 475.60943448 468.71647527 411.54345703 559.05419922 C410.25740015 560.67550156 408.9844526 562.30719178 407.71484375 563.94140625 C399.86638727 573.98162881 391.24245111 582.99058749 381.765625 591.48046875 C379.43296167 593.60556458 377.23882401 595.78101748 375.0625 598.0625 C371.68249542 601.49231517 368.04226983 604.48187635 364.25 607.4375 C363.69449463 607.87521729 363.13898926 608.31293457 362.56665039 608.76391602 C359.60153531 611.02824282 357.69473552 612.07631612 354 613 C354 571.75 354 530.5 354 488 C354.66 488 355.32 488 356 488 C356.27312012 487.28803467 356.54624023 486.57606934 356.82763672 485.8425293 C358.00758262 482.98161507 359.34250796 480.2710928 360.7578125 477.51953125 C372.32438189 454.61613466 379.57664572 431.31432436 384 406 C384.15307617 405.12553223 384.30615234 404.25106445 384.46386719 403.35009766 C388.39181908 380.02512492 389.68132621 355.63600783 389 332 C388.97099609 330.72431152 388.97099609 330.72431152 388.94140625 329.42285156 C387.45928452 268.54688095 373.28363332 205.19501884 330 160 C329.10195615 158.99778306 328.20873734 157.99122236 327.3203125 156.98046875 C281.4797006 104.94201902 207.33334252 86.30602236 141 81 C139.95023987 80.91285233 138.90047974 80.82570465 137.81890869 80.73591614 C124.60532816 79.77209311 111.37967553 79.77786084 98.13656044 79.69667697 C94.67593659 79.67451334 91.21535238 79.64727614 87.75476074 79.62062073 C81.2281527 79.57109777 74.70152219 79.52601255 68.17487097 79.48259836 C60.00066546 79.42798125 51.82650624 79.3673038 43.65234375 79.30664062 C29.10159837 79.19868099 14.5508091 79.0997503 0 79 C0 52.93 0 26.86 0 0 Z " fill="#64FDD9" transform="translate(657,485)"/>
<path d="M0 0 C7.07889096 6.4668064 10.80265405 13.55689096 11.3125 23.125 C11.10308921 33.28306811 5.2776578 42.85079039 0.875 51.75 C-16.90273709 88.32340706 -29.40750266 125.80170203 -40 165 C-40.33257812 166.22009766 -40.66515625 167.44019531 -41.0078125 168.69726562 C-51.79848085 208.82202563 -57.19803827 252.52654439 -57.1328125 294.0234375 C-57.13349018 295.42184465 -57.134464 296.82025169 -57.13571167 298.21865845 C-57.13717179 301.13129818 -57.13509244 304.0439069 -57.13037109 306.95654297 C-57.12472723 310.60792435 -57.12797502 314.25923156 -57.13388443 317.9106102 C-57.13857328 321.48989201 -57.13628846 325.06915563 -57.1328125 328.6484375 C-57.13267403 329.34885918 -57.13253555 330.04928085 -57.13239288 330.77092743 C-57.12571318 337.95363673 -57.03706996 345.11227763 -56.62792969 352.28613281 C-56.56523895 353.41193756 -56.50254822 354.53774231 -56.43795776 355.69766235 C-56.31292942 357.75181086 -56.16818909 359.80491755 -55.99783325 361.85580444 C-55.44469267 370.69878203 -57.66735895 378.32781356 -63.125 385.375 C-69.40174742 391.81065242 -75.58671227 394.28397205 -84.5625 394.5625 C-93.76181065 394.22865405 -100.49587233 391.65194875 -107 385 C-115.21913713 373.69868644 -114.52265454 359.26090273 -115.125 345.875 C-115.16669312 344.98174011 -115.20838623 344.08848022 -115.25134277 343.16815186 C-119.24597964 256.92136103 -106.25336581 172.33967281 -55 34 C-54.30076416 32.49300537 -54.30076416 32.49300537 -53.58740234 30.95556641 C-52.1505962 27.86191144 -50.70229657 24.77390964 -49.25 21.6875 C-48.81437744 20.75083496 -48.37875488 19.81416992 -47.92993164 18.84912109 C-42.58769655 7.61029666 -37.76501767 -0.02029469 -25.9296875 -4.84375 C-16.79763972 -7.65361085 -7.73537302 -5.2693984 0 0 Z " fill="#64FDD9" transform="translate(272,514)"/>
<path d="M0 0 C6.7128512 3.96058221 12.84196817 10.17860165 15.16015625 17.76953125 C16.68905339 26.48276056 16.37823796 34.50867104 11.5625 42.0625 C9.07105357 45.54927302 6.33413286 48.7959327 3.5625 52.0625 C-10.19273469 68.42909392 -22.80146198 85.51090641 -35.02587891 103.04345703 C-36.38809464 104.99183546 -37.76147205 106.93190057 -39.13671875 108.87109375 C-46.51492978 119.34960858 -53.15012248 130.24386821 -59.73388672 141.234375 C-61.30630062 143.84469926 -62.89974512 146.44035478 -64.50390625 149.03125 C-78.50766913 171.76330622 -90.10908225 195.90919874 -101.4375 220.0625 C-102.15800537 221.59511475 -102.15800537 221.59511475 -102.89306641 223.15869141 C-119.759847 259.36333467 -134.05753621 298.67311617 -143.20874023 337.5925293 C-145.69503965 347.99167442 -149.14946254 356.57041873 -158.5859375 362.38671875 C-166.55134738 366.15771844 -175.92784776 366.65238635 -184.375 364.21484375 C-191.71645918 360.91342537 -196.39807964 355.66547597 -200.3125 348.75 C-203.44143372 338.4940506 -201.96821024 329.81742929 -199.25 319.625 C-199.07410339 318.94352905 -198.89820679 318.26205811 -198.71697998 317.55993652 C-194.39069943 300.81326185 -188.86153364 284.46181593 -183.16204834 268.14117432 C-182.47051894 266.15722885 -181.78425205 264.1715577 -181.10009766 262.18505859 C-171.74093348 235.07339433 -160.73272335 208.96326087 -148.33639526 183.12597656 C-146.2743542 178.8263989 -144.24406505 174.51372534 -142.23828125 170.1875 C-135.8762204 156.54299458 -128.70933611 143.58116071 -120.97851562 130.66748047 C-118.91090182 127.17232215 -116.95356711 123.62211572 -115 120.0625 C-106.75712561 105.21627232 -97.66824755 90.74399609 -87.61328125 77.05859375 C-85.54739436 74.2138267 -83.6065181 71.32018777 -81.6875 68.375 C-72.79002741 54.9211604 -62.89438632 42.15024898 -52.72021484 29.64501953 C-50.91987392 27.42389089 -49.14919566 25.1795363 -47.375 22.9375 C-46.06612113 21.3095819 -44.75330366 19.6848261 -43.4375 18.0625 C-43.01082031 17.53350098 -42.58414063 17.00450195 -42.14453125 16.45947266 C-31.28581367 3.05716892 -18.27188372 -8.22802217 0 0 Z " fill="#64FDD9" transform="translate(237.4375,295.9375)"/>
<path d="M0 0 C7.02923438 5.04344746 12.18692266 11.52263021 17.30859375 18.41015625 C25.07082961 28.84382976 33.46356254 38.71719981 42.3671875 48.1875 C44.46069504 50.42388788 46.49986373 52.68100143 48.5 55 C56.82943735 64.56490414 65.47967426 73.54781128 74.77514648 82.1796875 C78.92671982 86.03562062 82.97617722 89.9489022 86.9375 94 C90.78940669 97.88645294 94.75803872 101.36701487 99.08203125 104.71484375 C102.13331153 107.10440059 105.11715744 109.56329347 108.09912109 112.03833008 C143.53312618 141.44159726 181.87022631 165.52079297 222.83544922 186.38623047 C225.42767968 187.70814401 228.01427299 189.0398377 230.59765625 190.37890625 C242.97399692 196.74596125 255.79039926 202.56873334 268.8203125 207.46484375 C277.23143484 210.65934929 284.22878895 215.05842737 288.5 223.25 C291.90499384 230.87970841 292.27302001 239.28378218 289.5 247.1875 C286.10696288 254.70236037 280.30158405 260.01803965 272.80078125 263.32421875 C258.26579928 268.77877814 243.37827288 260.57403289 230.1875 254.75 C228.85044113 254.16491665 227.51336414 253.57987472 226.17626953 252.99487305 C217.63126273 249.2398869 209.20973264 245.30771408 200.93310547 240.9921875 C198.77206649 239.88301064 196.59354291 238.81449652 194.41015625 237.75 C177.0330172 229.25489365 160.10117458 219.95003392 143.96191406 209.27539062 C141.63583699 207.76326685 139.28444042 206.29519063 136.9296875 204.828125 C125.35527928 197.59947933 114.24048673 189.98676344 103.35302734 181.76318359 C100.93472521 179.95108793 98.49669625 178.16915023 96.05078125 176.39453125 C86.70372404 169.60630466 77.67846512 162.62500981 69 155 C68.31421875 154.401875 67.6284375 153.80375 66.921875 153.1875 C65.6741729 152.09707127 64.42941021 151.00327069 63.1875 149.90625 C60.92001265 147.93029674 58.62150413 145.99309323 56.32275391 144.05371094 C43.98074814 133.59809773 32.33582686 122.40793655 20.875 111 C20.18881592 110.31848877 19.50263184 109.63697754 18.7956543 108.93481445 C14.8921038 105.01881855 11.17441681 100.99769654 7.58398438 96.79223633 C6.00256725 95.00290477 4.34696306 93.34099534 2.625 91.6875 C-1.05915657 88.06052546 -4.24992491 84.10270368 -7.48828125 80.078125 C-10.22359165 76.72598721 -13.04160627 73.456486 -15.875 70.1875 C-21.38157208 63.80356501 -26.6806941 57.28030172 -31.79541016 50.578125 C-32.90127031 49.12934509 -34.01845516 47.68922773 -35.13671875 46.25 C-40.56973606 38.96041703 -44.01163548 31.27332524 -43 22 C-40.69966361 12.53194877 -35.98851703 5.61892139 -28 0 C-19.31915208 -4.44209155 -8.64257104 -4.61035951 0 0 Z " fill="#64FDD9" transform="translate(325,1179)"/>
<path d="M0 0 C2.24406775 1.26608887 4.50922556 2.48374496 6.78417969 3.69335938 C16.42307779 8.85256584 25.86804553 14.33453456 35.26074219 19.92773438 C36.28288818 20.53302979 37.30503418 21.1383252 38.3581543 21.76196289 C44.36422386 25.37029649 50.05324193 29.24166277 55.68188477 33.41235352 C59.01886579 35.83633498 62.47978407 37.98918511 66.01074219 40.11523438 C77.20929761 46.99925269 87.68981381 54.75724142 98.06152344 62.81835938 C101.01824834 65.1012603 104.00743965 67.33166853 107.01074219 69.55273438 C113.95602888 74.74332562 120.6514002 80.23191117 127.35302734 85.73144531 C128.97544475 87.05805812 130.60757863 88.37276918 132.24121094 89.68554688 C138.00724722 94.32832933 143.49895044 99.1978782 148.88574219 104.27148438 C151.55691253 106.73498817 154.37163463 108.97430682 157.21777344 111.23242188 C164.26145577 116.9565313 170.53510619 123.39401111 176.88574219 129.86523438 C179.21951419 132.23586722 181.55666329 134.60310104 183.89746094 136.96679688 C184.45131973 137.52651688 185.00517853 138.08623688 185.57582092 138.66291809 C189.1178084 142.219445 192.74587538 145.61644016 196.60498047 148.83129883 C199.00534637 150.9539638 201.01602151 153.36671895 203.08496094 155.80664062 C205.87908603 159.02427451 208.78848626 162.12732906 211.69824219 165.24023438 C216.28970789 170.16629299 220.81455046 175.1274655 225.19824219 180.24023438 C226.09767363 181.27435663 226.99744543 182.3081829 227.89746094 183.34179688 C233.93801095 190.30393691 239.76159597 197.39301593 245.41308594 204.67382812 C247.81430216 207.76427443 250.26734807 210.80964688 252.73168945 213.84985352 C257.20797846 219.38392757 261.58218713 224.97713891 265.76074219 230.74023438 C266.16623291 231.29130859 266.57172363 231.84238281 266.98950195 232.41015625 C273.00098279 240.83209926 274.21292585 248.09339775 273.19824219 258.24023438 C271.35463983 265.61464381 266.50610532 272.45421448 260.10839844 276.59179688 C252.34170707 280.61254213 244.22845923 281.56028737 235.69824219 279.30273438 C222.7523506 274.23695071 214.90904732 260.27062219 206.98095703 249.61572266 C201.21831894 241.93694032 194.90781991 234.70139543 188.64086914 227.43432617 C185.5769352 223.87543779 182.58194103 220.27294814 179.63574219 216.61523438 C171.66184892 206.83297603 162.94182124 197.85602236 153.9440918 189.02270508 C150.73142177 185.85269358 147.64070105 182.64783936 144.70214844 179.22070312 C141.1761535 175.13174257 137.35322515 171.45892917 133.38574219 167.80273438 C132.68360596 167.15022705 131.98146973 166.49771973 131.25805664 165.82543945 C126.72788957 161.62462538 122.16624121 157.45993786 117.55371094 153.34960938 C114.91190957 150.9838171 112.30739232 148.57946253 109.69824219 146.17773438 C105.49420716 142.35159014 101.18175084 138.73709653 96.71386719 135.22460938 C94.09599779 133.15958196 91.52075899 131.04893244 88.94824219 128.92773438 C55.73855718 101.74774078 20.21174963 78.3672882 -16.91503906 56.91308594 C-21.0188893 54.5349075 -25.10979105 52.13468946 -29.20043945 49.73388672 C-30.74602743 48.84642475 -32.3050963 47.9808835 -33.8894043 47.16455078 C-40.63298819 43.67715717 -44.92609184 38.20237305 -47.80175781 31.24023438 C-50.3527915 22.6594847 -48.98269771 14.05139896 -44.80175781 6.24023438 C-32.26984585 -10.17657029 -16.74012217 -9.49805013 0 0 Z " fill="#64FDD9" transform="translate(1201.8017578125,115.759765625)"/>
<path d="M0 0 C2.04192977 1.01513936 4.0863122 2.02535657 6.1328125 3.03125 C7.19661133 3.55460937 8.26041016 4.07796875 9.35644531 4.6171875 C19.59760938 9.53735237 30.132313 13.83662908 40.625 18.1875 C41.64551453 18.61122894 41.64551453 18.61122894 42.68664551 19.04351807 C75.0146015 32.44617703 107.77762846 43.31369074 141.625 52.1875 C142.75965698 52.48557556 142.75965698 52.48557556 143.91723633 52.78967285 C197.74926842 66.88497618 253.06960422 74.88178524 308.7487793 75.80932617 C321.76815467 76.07733065 332.59462443 76.65130139 342.40234375 85.85546875 C348.85199433 92.7466602 350.22019087 99.69445221 349.97265625 109.00390625 C349.1402641 116.62637372 345.35215809 123.12746142 339.625 128.1875 C304.19782052 151.96991961 213.55531853 127.65566793 174.15673828 119.91943359 C105.82172637 105.7493082 38.89459168 84.05357731 -23.8125 53.25 C-24.68777344 52.82581787 -25.56304687 52.40163574 -26.46484375 51.96459961 C-33.3542614 48.49877014 -39.67082982 44.57194659 -43.25 37.5 C-43.63929688 36.75363281 -44.02859375 36.00726562 -44.4296875 35.23828125 C-47.75751316 28.01882475 -47.47880493 19.23029704 -44.8125 11.8125 C-40.81425923 3.2169789 -34.06114643 -1.43300251 -25.375 -4.8125 C-16.29886452 -7.70775469 -7.98674017 -4.14466639 0 0 Z " fill="#64FDD9" transform="translate(487.375,1497.8125)"/>
<path d="M0 0 C10.02444122 6.11346826 14.79901923 14.10753264 17.54898071 25.32804871 C18.28351261 28.50029535 18.98353606 31.67897232 19.66635132 34.86273193 C20.6105296 39.24788399 21.60780014 43.62106994 22.59765625 47.99609375 C22.79479721 48.87190094 22.99193817 49.74770813 23.1950531 50.65005493 C34.79820386 102.08553379 53.73780001 151.83993043 76.91088867 199.13293457 C77.90302364 201.16154642 78.88887946 203.19309816 79.87304688 205.22558594 C87.1115155 220.15771457 94.66439711 234.75387392 103.46826172 248.83886719 C104.92789606 251.20151671 106.34440263 253.58531928 107.75 255.98046875 C119.85840184 276.59016559 133.39478252 296.20384146 147.57714844 315.43066406 C149.23769828 317.68721045 150.88335791 319.954026 152.52734375 322.22265625 C153.02459961 322.889021 153.52185547 323.55538574 154.03417969 324.24194336 C159.55380104 331.90372171 161.94538312 339.72810021 160.90234375 349.16015625 C159.48292759 357.41225219 154.67271028 363.66894042 147.96484375 368.578125 C140.70980664 372.90925707 132.38284503 373.40897875 124.2109375 371.546875 C104.2308183 364.44908617 91.96238031 338.60362109 80.89306641 322.12060547 C79.12688012 319.49406942 77.3509604 316.87455281 75.5703125 314.2578125 C63.73760158 296.79962092 53.22516131 278.54095445 42.90234375 260.16015625 C42.40734375 259.28133789 41.91234375 258.40251953 41.40234375 257.49707031 C33.27015006 243.00630591 25.93727503 228.2107599 18.90234375 213.16015625 C18.43441406 212.16757813 17.96648437 211.175 17.484375 210.15234375 C4.32448707 182.21062092 -6.40135017 153.60938208 -16.33465576 124.39654541 C-17.02353943 122.37739602 -17.71900718 120.36072331 -18.41845703 118.34521484 C-23.72981453 102.97669341 -27.95943464 87.42335524 -31.91015625 71.66015625 C-32.14149261 70.73916138 -32.37282898 69.8181665 -32.61117554 68.8692627 C-35.06280631 59.05747789 -37.37357613 49.22081683 -39.421875 39.31640625 C-39.59274124 38.51247437 -39.76360748 37.70854248 -39.93965149 36.88024902 C-41.98498269 26.68517931 -41.43574549 17.73867639 -35.5546875 8.8203125 C-27.21294115 -1.43030029 -12.39106644 -5.63230293 0 0 Z " fill="#64FDD9" transform="translate(68.09765625,954.83984375)"/>
<path d="M0 0 C6.41982889 6.25088602 9.95323309 13.16694366 10.6875 22.125 C10.16937105 35.57044628 2.41363883 42.64917719 -7 51.375 C-11.43006035 55.32100119 -15.9559419 59.12819927 -20.57421875 62.8515625 C-22.79788674 64.64530236 -25.00698478 66.45122383 -27.20703125 68.2734375 C-37.39758112 76.68542362 -47.91516827 84.57599348 -58.625 92.3125 C-59.33769043 92.83199219 -60.05038086 93.35148437 -60.78466797 93.88671875 C-70.69874542 101.10708127 -80.90193597 107.70996413 -91.375 114.08984375 C-94.73937003 116.14139417 -98.07153775 118.23068906 -101.375 120.37890625 C-113.39469091 128.18353859 -125.83332563 134.86240972 -138.625 141.3125 C-139.98068506 142.00348201 -141.33617814 142.69484094 -142.69140625 143.38671875 C-145.87137264 145.00198621 -149.06689029 146.58354554 -152.26953125 148.15332031 C-154.00910188 149.00940254 -155.74563332 149.8716669 -157.48046875 150.73730469 C-206.95268939 175.39659479 -259.65029879 191.95126549 -313.625 203.3125 C-314.64182861 203.52890137 -315.65865723 203.74530273 -316.70629883 203.96826172 C-328.42846203 206.40462863 -337.86352246 205.79690925 -348.4375 199.6875 C-354.65880656 192.93293859 -358.30405045 185.34771416 -358.72265625 176.171875 C-358.35824282 168.06732026 -354.33254802 159.49621314 -348.5625 153.8125 C-339.69252436 147.46398366 -327.01617236 146.20830013 -316.49291992 144.05117798 C-262.6326204 132.93579268 -211.27857042 113.85451817 -162.625 88.3125 C-161.55733398 87.75256348 -160.48966797 87.19262695 -159.38964844 86.61572266 C-123.77983985 67.80983182 -90.66608665 44.97012287 -59.68212891 19.30883789 C-55.82503422 16.11436322 -51.94126475 12.96571826 -48 9.875 C-45.13346834 7.61652051 -42.60490801 5.29918652 -40.125 2.625 C-28.46639806 -9.41946583 -13.1632521 -8.46209064 0 0 Z " fill="#64FDD9" transform="translate(1262.625,1271.6875)"/>
<path d="M0 0 C3.56253479 -0.00221811 7.12477418 -0.02054776 10.68725586 -0.03930664 C12.9821767 -0.04223622 15.27709897 -0.04422392 17.57202148 -0.04516602 C18.62213913 -0.05235153 19.67225677 -0.05953705 20.75419617 -0.06694031 C32.03127056 -0.03210091 41.85692499 1.83690666 50.20092773 10.00561523 C54.95545203 15.81931573 56.92469476 22.29462832 57.71655273 29.68530273 C56.62448603 39.87792534 53.08820598 46.32863716 45.34155273 53.18530273 C39.48083689 57.08216468 34.05656361 58.30539496 27.1315918 58.32714844 C25.86356216 58.3343692 24.59553253 58.34158997 23.28907776 58.34902954 C22.60983309 58.35086872 21.93058842 58.3527079 21.23076057 58.35460281 C17.54780595 58.36584318 13.86498995 58.39660657 10.18212891 58.42431641 C9.4055339 58.42977478 8.62893888 58.43523315 7.82881069 58.44085693 C-78.52215903 59.06401931 -161.54925407 71.50955737 -297.96875 119.67431641 C-307.05092475 123.87598252 -315.65325185 125.94662636 -325.28735352 122.42358398 C-332.52405044 118.64428757 -338.31879813 112.59061168 -341.65844727 105.18530273 C-344.02592254 97.51533148 -343.51595554 88.87273566 -340.06640625 81.64819336 C-335.20107633 73.13745152 -327.49343522 69.09714031 -318.78344727 65.31030273 C-317.63924316 64.79983398 -316.49503906 64.28936523 -315.31616211 63.76342773 C-239.0564288 30.16275609 -156.64949608 11.2786448 -43.65844727 1.18530273 C-42.99013885 1.14293488 -42.32183044 1.10056702 -41.63327026 1.05691528 C-27.75633689 0.1949713 -13.90163776 -0.00096963 0 0 Z " fill="#64FDD9" transform="translate(817.658447265625,18.814697265625)"/>
<path d="M0 0 C6.92514473 6.73797866 10.79466945 13.40704672 11.3125 23.125 C11.19457336 30.98677583 8.25568164 38.75672561 2.84375 44.5 C-4.33784622 50.34265455 -11.84969085 52.11962728 -20.8671875 52.24609375 C-22.47526625 52.27737103 -24.08333896 52.30895977 -25.69140625 52.34082031 C-26.95815186 52.36384216 -26.95815186 52.36384216 -28.25048828 52.3873291 C-70.30429944 53.19124149 -111.73648559 57.0166887 -152.76806641 66.48498535 C-154.28160443 66.83423152 -155.7956196 67.18141506 -157.31005859 67.5267334 C-194.14841678 75.92903207 -230.36150179 86.57439527 -264.70410156 102.47705078 C-267.93418126 103.96958687 -271.178508 105.42518233 -274.4296875 106.87109375 C-293.22551244 115.27442031 -311.24236792 124.76523847 -328.91992188 135.31762695 C-338.36021757 140.92539908 -347.03984671 145.72761126 -358.390625 143.5390625 C-366.25149614 141.48944886 -372.28435778 137.93735245 -376.875 131.125 C-380.87076196 124.04833067 -382.29239642 116.2856692 -380.34765625 108.33203125 C-375.06495248 91.89443369 -360.55680626 85.65570883 -346.1875 78.0625 C-339.38550494 74.4440741 -332.61129009 70.83181979 -326 66.875 C-247.2645783 21.70673272 -147.87526461 -1.22862298 -45.24316406 -5.50268555 C-43.10471207 -5.56307291 -40.96642829 -5.62793586 -38.828125 -5.69335938 C-8.25874555 -6.60699644 -8.25874555 -6.60699644 0 0 Z " fill="#64FDD9" transform="translate(842,169)"/>
<path d="M0 0 C1.98474915 1.33356035 3.96240998 2.67771872 5.93359375 4.03125 C6.97918457 4.73958984 8.02477539 5.44792969 9.10205078 6.17773438 C12.20028094 8.28341064 15.28766419 10.40397396 18.37109375 12.53125 C19.22912598 13.12164062 20.0871582 13.71203125 20.97119141 14.3203125 C29.35316749 20.10594964 37.49956197 26.06280092 45.37109375 32.53125 C47.86609593 34.53751103 50.3691228 36.53369123 52.87109375 38.53125 C54.16929529 39.57158407 55.46747286 40.61194804 56.765625 41.65234375 C58.87930535 43.34405924 61.0002506 45.02336278 63.1328125 46.69140625 C69.28949524 51.51959384 75.05447556 56.71319536 80.77392578 62.04296875 C83.54971856 64.62952221 86.33530821 67.20546859 89.12109375 69.78125 C89.67168457 70.29123535 90.22227539 70.8012207 90.78955078 71.32666016 C93.67077295 73.98859269 96.57984749 76.60303892 99.55859375 79.15625 C105.64678799 84.43525386 111.40102167 90.14076219 116.62109375 96.28125 C119.95329392 100.18987342 123.58737112 103.74575705 127.24609375 107.34375 C133.0665877 113.09239544 138.32277891 119.08699961 143.37109375 125.53125 C144.80362068 127.30610874 146.24124057 129.07686736 147.68359375 130.84375 C148.42609375 131.75511719 149.16859375 132.66648437 149.93359375 133.60546875 C151.65997445 135.67767892 153.40044265 137.716531 155.18359375 139.73828125 C162.35220676 147.88529073 168.66479409 156.39075893 174.82373047 165.31933594 C176.91204631 168.30452709 179.07131624 171.23498658 181.22973633 174.16967773 C188.43903887 183.99333096 195.01862497 194.13630109 201.37109375 204.53125 C201.76216309 205.17094727 202.15323242 205.81064453 202.55615234 206.46972656 C204.77435071 210.11230351 206.95589884 213.77546899 209.12695312 217.44628906 C210.50966321 219.76346805 211.91653729 222.06509796 213.32421875 224.3671875 C219.67787675 234.83438188 225.55238008 245.47488362 231.05859375 256.40625 C231.51472549 257.30312027 231.51472549 257.30312027 231.98007202 258.21810913 C237.182475 268.48194629 240.82923574 276.91976349 238.37109375 288.53125 C235.29453574 297.62831378 229.57402651 303.5738375 221.12109375 307.96875 C214.76558648 310.48469952 208.07924116 310.80380692 201.59375 308.578125 C187.69731642 301.97470694 182.73949789 290.53601365 176.30859375 277.28125 C167.13397779 258.68626944 156.40269966 241.19465175 144.953125 223.92626953 C143.39152581 221.56218187 141.84832662 219.18696648 140.30859375 216.80859375 C134.67686087 208.16109986 128.72675011 199.97130491 122.18359375 191.9921875 C119.58521948 188.82167797 117.12282061 185.57590017 114.68359375 182.28125 C107.90371207 173.17648968 100.64511387 164.625205 92.93359375 156.30859375 C90.3050313 153.45964878 87.74773822 150.55956253 85.20629883 147.63330078 C78.335317 139.76325242 71.21200494 132.21499576 63.80859375 124.84375 C62.46764648 123.49700195 62.46764648 123.49700195 61.09960938 122.12304688 C56.01877279 117.04964384 50.84209446 112.17989342 45.37109375 107.53125 C44.21830465 106.53436893 43.06594736 105.53698827 41.9140625 104.5390625 C35.69166769 99.1855031 29.43396371 93.88861441 23.05078125 88.7265625 C21.24372489 87.24614607 19.45740595 85.74009759 17.69140625 84.2109375 C10.92381776 78.38068814 3.8475564 73.33174443 -3.56176758 68.35522461 C-8.28613507 65.17201365 -12.86139159 61.89292346 -17.31640625 58.34375 C-22.0161711 54.62485797 -26.85624634 51.52858083 -32.00390625 48.46875 C-40.30411639 43.47065852 -46.02514817 38.1615881 -48.62890625 28.53125 C-49.58917398 17.7812398 -48.82731169 10.128212 -41.94140625 1.78125 C-29.64479569 -11.35325115 -14.04507223 -9.03877677 0 0 Z " fill="#64FDD9" transform="translate(1177.62890625,269.46875)"/>
<path d="M0 0 C6.820439 4.25446487 10.77655089 10.82744301 12.6171875 18.609375 C14.10194663 27.88154427 11.92900984 35.66325012 6.5625 43.25 C-1.11957405 53.22544048 -9.51760289 62.62398904 -18.13671875 71.79296875 C-20.582954 74.45757977 -22.82269817 77.26325086 -25.08105469 80.08813477 C-29.61927105 85.64549887 -34.47417866 90.74898438 -39.56640625 95.796875 C-40.88390114 97.11368256 -40.88390114 97.11368256 -42.22801208 98.45709229 C-44.06849513 100.29457945 -45.91138228 102.12966156 -47.7565918 103.96240234 C-50.56423776 106.75172642 -53.36373338 109.54903524 -56.16210938 112.34765625 C-57.96306988 114.14370236 -59.76448663 115.93929114 -61.56640625 117.734375 C-62.39370743 118.56056335 -63.22100861 119.38675171 -64.07337952 120.23797607 C-68.89526651 125.02098158 -73.84223887 129.58268881 -79 134 C-80.62896054 135.45390807 -82.25458179 136.91157732 -83.875 138.375 C-84.72707031 139.14070313 -85.57914063 139.90640625 -86.45703125 140.6953125 C-88.06981949 142.15697926 -89.67270127 143.62971345 -91.26171875 145.1171875 C-97.1349501 150.56164305 -103.34964084 155.43155849 -109.76000977 160.21972656 C-113.27871146 162.85988234 -116.67908626 165.55370392 -119.96484375 168.48046875 C-124.10264914 172.15221378 -128.46632579 175.43488969 -132.9375 178.6875 C-133.76016357 179.28981445 -134.58282715 179.89212891 -135.43041992 180.51269531 C-142.24154859 185.48405512 -149.11592228 190.36298794 -156.0234375 195.19921875 C-158.54759358 196.96879907 -161.05309089 198.75921883 -163.5390625 200.58203125 C-172.05088219 206.80894565 -180.89140273 212.33960925 -189.93554688 217.75976562 C-192.74032544 219.44475558 -195.52737887 221.15774915 -198.3125 222.875 C-199.89224609 223.83986328 -199.89224609 223.83986328 -201.50390625 224.82421875 C-204.04194789 226.38738347 -206.53787164 228.00523625 -209.02734375 229.64453125 C-221.18419999 237.5366471 -233.85284291 244.22677608 -246.75 250.8125 C-247.6220105 251.25830414 -248.494021 251.70410828 -249.39245605 252.16342163 C-255.24269349 255.14755385 -261.11206735 258.09098238 -267 261 C-268.20765015 261.59849258 -268.20765015 261.59849258 -269.43969727 262.20907593 C-271.75133659 263.34868729 -274.06936466 264.47388754 -276.390625 265.59375 C-277.07316345 265.93038162 -277.7557019 266.26701324 -278.45892334 266.61384583 C-285.88953009 270.14996592 -291.97796475 270.0005734 -299.75 267.875 C-307.476187 264.90869606 -312.35096032 259.28382529 -316 252 C-319.27052182 243.59008675 -318.78500484 235.90547909 -315.55859375 227.6171875 C-311.26448516 220.40652896 -306.12732962 215.90630986 -298.625 212.3125 C-296.93863556 211.46387249 -295.25244684 210.61489575 -293.56640625 209.765625 C-292.66937988 209.32154297 -291.77235352 208.87746094 -290.84814453 208.41992188 C-285.72059169 205.86361746 -280.64430684 203.20826116 -275.5625 200.5625 C-274.50313232 200.01207031 -273.44376465 199.46164062 -272.35229492 198.89453125 C-256.8608735 190.82793613 -241.68492545 182.46108258 -227 173 C-225.69150911 172.1639015 -224.38291419 171.32796579 -223.07421875 170.4921875 C-219.52636068 168.21872348 -215.99408626 165.92221497 -212.46826172 163.61474609 C-210.71363054 162.46685978 -208.95726102 161.32162875 -207.19970703 160.17822266 C-194.3003278 151.77257501 -181.8765199 143.05007929 -169.84375 133.44677734 C-167.34770425 131.48814823 -164.77624284 129.64619284 -162.1875 127.8125 C-156.40849701 123.6657345 -151.0517239 119.06947055 -145.66601562 114.43212891 C-142.91377342 112.06626537 -140.14475278 109.72031534 -137.375 107.375 C-136.83810547 106.91923584 -136.30121094 106.46347168 -135.74804688 105.99389648 C-132.24640833 103.02888511 -128.69758937 100.12954608 -125.125 97.25 C-121.44696374 94.25860148 -118.03698723 91.16973111 -114.75415039 87.75317383 C-113.1307432 86.13067042 -111.4607375 84.66539726 -109.703125 83.19140625 C-103.65066331 77.92996623 -98.04936206 72.19825522 -92.39086914 66.52124023 C-90.4420313 64.56704376 -88.48790728 62.61824853 -86.53320312 60.66992188 C-81.00809477 55.14776723 -75.50898168 49.65140077 -70.44848633 43.69360352 C-67.942933 40.76405296 -65.26948621 37.99109262 -62.625 35.1875 C-56.29577157 28.42211701 -50.44200977 21.35210049 -44.6953125 14.0859375 C-32.9257523 -0.61610571 -18.60681789 -10.17808842 0 0 Z " fill="#64FDD9" transform="translate(1439,1289)"/>
<path d="M0 0 C7.70440476 6.2813897 10.20141953 14.07516684 12.09375 23.58203125 C12.4028833 25.11210815 12.4028833 25.11210815 12.71826172 26.6730957 C17.0652437 49.19941302 19.55690813 72.10462079 21.40625 94.95703125 C21.46532532 95.68288422 21.52440063 96.40873718 21.58526611 97.15658569 C23.25848459 118.09629119 23.86599893 139.01635455 23.84375 160.01953125 C23.84281342 161.17510529 23.84187683 162.33067932 23.84091187 163.52127075 C23.75539005 212.57245247 19.13173667 260.92126278 10.08911133 309.14483643 C9.66271889 311.42247669 9.24190025 313.70108653 8.82226562 315.97998047 C8.05693347 320.12198445 7.26716437 324.25877061 6.46875 328.39453125 C6.24324463 329.58433594 6.01773926 330.77414062 5.78540039 332 C3.85372481 341.6548696 1.53874785 351.87991521 -6.34375 358.45703125 C-13.5416055 362.9051442 -20.78316012 365.48546083 -29.34375 364.45703125 C-37.8302448 362.32014407 -44.15826137 359.16447555 -49.1015625 351.859375 C-56.72518836 338.40278888 -52.71961115 324.62983029 -49.78253174 310.27688599 C-48.71303109 305.03449838 -47.69134564 299.78280395 -46.66796875 294.53125 C-46.46437744 293.48940048 -46.26078613 292.44755096 -46.05102539 291.37413025 C-39.26623778 256.43637138 -35.81943441 221.08135666 -34.78125 185.51953125 C-34.74998016 184.46764114 -34.74998016 184.46764114 -34.71807861 183.39450073 C-34.41447407 173.07853372 -34.14009765 162.77805321 -34.34375 152.45703125 C-34.36163574 151.37099609 -34.37952148 150.28496094 -34.39794922 149.16601562 C-35.02422057 114.29595805 -37.87470715 79.82826142 -43.48828125 45.39453125 C-43.67334229 44.25798096 -43.85840332 43.12143066 -44.04907227 41.95043945 C-44.39964561 39.82264313 -44.75761967 37.69604607 -45.12475586 35.57104492 C-46.9454599 24.7376266 -47.15133674 15.65038691 -40.71875 6.26953125 C-30.30481192 -6.64478306 -13.87931604 -9.13721639 0 0 Z " fill="#64FDD9" transform="translate(1600.34375,664.54296875)"/>
<path d="M0 0 C6.78822974 4.57777678 11.48761869 10.87522683 13.61401367 18.82788086 C14.46404805 23.61140766 14.28949196 28.46996817 14.25 33.3125 C14.24323242 34.53453125 14.23646484 35.7565625 14.22949219 37.015625 C13.70619192 85.35396579 7.42557178 133.5131093 -3.5625 180.5625 C-3.74009857 181.3336615 -3.91769714 182.104823 -4.10067749 182.89935303 C-5.99011552 191.03108119 -8.1740946 198.95987063 -11.06640625 206.796875 C-11.30702286 207.45365738 -11.54763947 208.11043976 -11.79554749 208.78712463 C-15.08134185 217.3319767 -20.78233166 223.05213047 -29 227 C-36.4837019 229.37626823 -44.14294773 228.82678116 -51.25 225.625 C-58.60032419 221.56399412 -64.53806589 215.14245179 -67 207 C-69.39697473 198.01396408 -66.50648435 189.6609419 -64.144104 180.98086548 C-62.93463 176.52047954 -61.78922103 172.04378387 -60.64453125 167.56640625 C-60.41409119 166.66728012 -60.18365112 165.76815399 -59.94622803 164.84178162 C-49.52108122 123.74221458 -44.94611297 80.72376498 -44.37817383 38.36450195 C-43.95717677 14.24949512 -43.95717677 14.24949512 -35.140625 5.0625 C-25.68791059 -3.73072271 -11.74647354 -7.0108457 0 0 Z " fill="#64FDD9" transform="translate(1466,800)"/>
<path d="M0 0 C8.18000145 4.37076144 12.72520013 9.67319745 16.0625 18.375 C18.10955685 27.02964544 17.1820841 35.1674403 12.5859375 42.83984375 C7.34109707 50.0365312 1.27057652 54.58695218 -7.58984375 56.15234375 C-15.95110487 56.94534189 -22.97305462 55.09209494 -29.9375 50.375 C-36.07665064 44.98710298 -40.32055819 38.43773895 -41.31640625 30.265625 C-41.65086981 21.07327168 -40.05101146 13.37317485 -33.6875 6.5 C-24.74136102 -1.67492011 -11.42137189 -4.75397345 0 0 Z " fill="#64FDD9" transform="translate(51.9375,779.625)"/>
<path d="M0 0 C5.21150839 2.98400884 8.58191831 6.22969836 11.4375 11.5 C11.77394531 12.11617187 12.11039063 12.73234375 12.45703125 13.3671875 C15.81372572 20.75498082 15.5522616 29.28102147 12.8125 36.8125 C8.76568233 45.58060494 3.3727336 49.9318044 -5.5625 53.5 C-12.98049511 55.75702564 -20.16626762 54.97453876 -27.17578125 51.81640625 C-34.91240024 47.54923669 -39.66129139 41.85347997 -42.5625 33.5 C-44.55542013 24.95142153 -43.53101077 17.29729411 -38.9375 9.8125 C-29.86996224 -2.83782097 -14.22460399 -6.5351489 0 0 Z " fill="#64FDD9" transform="translate(1458.5625,691.5)"/>
<path d="M0 0 C6.45152772 4.52717146 12.27051925 10.82935633 13.79296875 18.74609375 C14.59015902 28.84866859 13.6761297 36.63249193 7.10546875 44.55859375 C0.99403727 50.92559418 -4.67641429 53.30049243 -13.48046875 53.7734375 C-22.46486433 53.68333611 -30.15869955 50.31248447 -36.84375 44.265625 C-42.6639724 37.74627678 -44.37161855 30.2811207 -44.20703125 21.74609375 C-42.87667501 12.15054558 -37.54315157 6.26847979 -30.20703125 0.37109375 C-20.89851649 -6.22916335 -9.6855885 -5.50278568 0 0 Z " fill="#64FDD9" transform="translate(337.20703125,1400.25390625)"/>
<path d="M0 0 C7.48369703 5.10190557 12.17677785 12.06805313 14 21 C14.70087088 29.76088594 12.20154042 37.47088488 6.671875 44.24609375 C0.54546883 50.67309462 -6.4958453 53.37297394 -15.2890625 54.0859375 C-24.01209045 53.809415 -32.01481871 49.14142096 -38 43 C-43.14560218 35.82323906 -44.74226181 28.73585051 -44 20 C-42.68607394 12.37922887 -38.70123365 7.08968263 -33 2 C-22.73376486 -5.06855534 -10.94876106 -6.77015133 0 0 Z " fill="#64FDD9" transform="translate(998,1561)"/>
<path d="M0 0 C8.88580943 4.72368308 13.44970628 10.70430471 16.375 20.25 C18.20158867 28.86345481 15.96680279 36.03874851 11.86328125 43.66796875 C9.1943867 47.67999461 6.2720845 50.09414148 2.0625 52.375 C1.44632813 52.71144531 0.83015625 53.04789063 0.1953125 53.39453125 C-6.21986458 56.30931088 -13.65999096 56.50313425 -20.42578125 54.71875 C-28.06123694 51.6592928 -34.8650103 46.32546735 -38.1875 38.671875 C-41.1159774 29.70341295 -42.02717675 21.61677122 -37.77734375 13.03125 C-30.04286663 0.10454729 -14.27877468 -5.89828902 0 0 Z " fill="#64FDD9" transform="translate(1367.9375,1132.625)"/>
<path d="M0 0 C6.23161438 4.39334595 9.62506257 9.24493296 11.73046875 16.609375 C12.71251168 26.88894128 11.6911489 34.2713867 5.16796875 42.296875 C-1.33490568 49.10604424 -7.32066018 51.8632713 -16.76953125 52.234375 C-25.74829269 51.89043051 -31.95292911 49.39060089 -38.14453125 42.859375 C-43.66399368 35.86544625 -45.98766531 29.57653847 -45.65625 20.60546875 C-44.68848155 13.10770714 -41.65105468 6.86859108 -36.26953125 1.609375 C-24.56283333 -7.25709031 -12.39234398 -7.59324347 0 0 Z " fill="#64FDD9" transform="translate(1550.26953125,496.390625)"/>
<path d="M0 0 C7.21052018 5.28942244 12.20568073 11.02840366 14 20 C14.93314886 28.38420113 13.21626249 35.27738673 8.45703125 42.265625 C2.54069715 49.57642687 -4.14934066 52.39393263 -13.33203125 53.8125 C-17.27836563 54.08984122 -20.34609709 53.45103552 -24 52 C-24.66773438 51.74089844 -25.33546875 51.48179688 -26.0234375 51.21484375 C-33.51526933 47.89949288 -39.29806502 42.39952637 -42.33984375 34.72265625 C-44.07327611 27.57352988 -44.48315995 19.1364099 -41.25 12.375 C-40.53517763 11.22732671 -39.78821792 10.09856156 -39 9 C-38.443125 8.13375 -37.88625 7.2675 -37.3125 6.375 C-27.13006049 -4.08264058 -12.84414481 -7.89162771 0 0 Z " fill="#64FDD9" transform="translate(241,1026)"/>
<path d="M0 0 C6.64494929 4.98117573 11.19357837 10.82923197 13 19 C14.13589675 28.02738998 12.82618449 35.90429807 7.3046875 43.2578125 C1.80515905 49.29170809 -4.09891141 52.42761009 -12.2109375 53.375 C-21.66009118 53.72741599 -28.03238352 51.62935978 -35.3125 45.6875 C-40.64217669 40.7400312 -43.58314427 35.39485045 -44.2734375 28.1171875 C-44.58386645 18.2073404 -42.45141182 11.44739996 -35.6875 4.125 C-25.43812298 -5.36350623 -12.21478416 -6.52040996 0 0 Z " fill="#64FDD9" transform="translate(773,1431)"/>
<path d="M0 0 C0.67804688 0.36738281 1.35609375 0.73476562 2.0546875 1.11328125 C8.99232803 5.55075321 12.33965023 12.45895105 14.66015625 20.203125 C15.95871015 27.54667119 13.85343482 35.65288221 10.3203125 42.1171875 C6.1332889 48.0880318 0.2149585 52.61682143 -7 54 C-15.72874165 54.84779844 -23.3923882 54.29700222 -30.63671875 49.11328125 C-37.52710765 43.34949608 -41.38350728 38.44069788 -42.40234375 29.44921875 C-42.79933375 19.81494926 -41.45630819 12.94768818 -34.9453125 5.71875 C-25.31598371 -3.47742559 -12.21155325 -6.66781464 0 0 Z " fill="#64FDD9" transform="translate(1531,1140)"/>
<path d="M0 0 C6.29881702 4.78467831 10.43369146 11.22756327 12 19 C12.72485194 27.07094754 11.91244146 33.9924332 7.078125 40.64453125 C1.16083348 47.61265213 -4.95150852 52.25741281 -14.26171875 53.23828125 C-23.90148205 53.53321765 -30.3060462 50.24049858 -37.27734375 43.7265625 C-43.16204518 37.82851708 -45.27662751 32.61536969 -45.4375 24.25 C-45.28410367 16.15408253 -43.36061628 10.73756754 -37.9453125 4.71484375 C-27.39750092 -5.34024999 -12.92601657 -7.71464721 0 0 Z " fill="#64FDD9" transform="translate(370,371)"/>
<path d="M0 0 C6.12916251 4.20875142 10.24370999 9.19113376 12.23046875 16.41796875 C13.92018682 25.74159166 12.55028721 33.53189881 7.5703125 41.61328125 C2.968901 47.72769924 -3.93097316 51.40375688 -11.33203125 52.83203125 C-19.90886 53.89392433 -28.32835401 51.4707147 -35.20703125 46.20703125 C-40.42494953 41.29014671 -43.81516255 33.94107952 -44.53515625 26.82421875 C-44.72989167 18.02866916 -42.96049363 11.30428458 -37.26953125 4.45703125 C-26.87146175 -6.19219935 -12.82337233 -7.23326286 0 0 Z " fill="#64FDD9" transform="translate(1013.33203125,194.16796875)"/>
<path d="M0 0 C6.83836234 5.75969209 11.53733221 11.53493079 12.78125 20.54296875 C13.19398633 30.06685951 11.01722911 36.64268588 5 43.9609375 C-2.45528546 50.02919311 -9.43189769 53.57712892 -19.33203125 52.9921875 C-27.63202567 51.66622833 -34.15245287 47.73878388 -39.3671875 41.15625 C-43.84418665 34.34803236 -45.91279321 27.2581101 -44.6875 19.1484375 C-42.59618605 11.00592518 -38.37058839 4.37759965 -31.41015625 -0.421875 C-21.36104918 -6.27410042 -9.81903921 -6.76486132 0 0 Z " fill="#64FDD9" transform="translate(1035.6875,49.8515625)"/>
<path d="M0 0 C6.67581293 4.56362949 11.79415607 10.10986596 14 18 C15.01860124 26.51259608 14.98438458 34.75132271 10 42 C5.13196186 48.17439774 -0.62079002 51.54026334 -8 54 C-17.75685599 54.99029653 -25.6388443 52.99166096 -33.3125 46.8125 C-39.67476221 40.74645647 -42.66226793 34.42588251 -43.06640625 25.6328125 C-42.86441504 17.62445526 -39.86518002 11.18326216 -34.43359375 5.3046875 C-24.83358047 -3.56028996 -11.86622607 -6.27094153 0 0 Z " fill="#64FDD9" transform="translate(366,177)"/>
</svg>
